<svg width="100" height="25" viewBox="0 0 100 25" fill="none" xmlns="http://www.w3.org/2000/svg"><path fill-rule="evenodd" clip-rule="evenodd" d="M12.34 6.92463C12.34 6.39902 12.4842 5.96618 12.7721 5.62557C13.0605 5.28514 13.4827 5.11493 14.0389 5.11493C14.5955 5.11493 15.0226 5.28514 15.3206 5.62557C15.6188 5.96618 15.7678 6.39902 15.7678 6.92463V11.5068C15.7678 12.7129 15.6385 13.8027 15.3803 14.7756C15.1219 15.7486 14.7046 16.6387 14.1284 17.4463C13.5523 18.2538 12.7375 18.8814 11.6844 19.3289C10.6312 19.7763 9.37927 19.9999 7.92861 19.9999C5.12676 19.9999 3.10497 19.2267 1.86269 17.6798C0.620775 16.1327 0 14.0945 0 11.5652V6.92463C0 6.39902 0.15383 5.96618 0.461854 5.62557C0.770241 5.28514 1.20227 5.11493 1.75868 5.11493C2.33491 5.11493 2.78185 5.28514 3.09987 5.62557C3.4179 5.96618 3.57682 6.39902 3.57682 6.92463V11.7112C3.57682 15.155 5.03711 16.8769 7.95825 16.8769C10.8794 16.8769 12.34 15.1356 12.34 11.6526V6.92463Z" fill="#FF5D6A"></path><path fill-rule="evenodd" clip-rule="evenodd" d="M77.6028 11.5751C78.2467 11.2573 78.5689 10.7457 78.5689 10.0407C78.5689 8.79252 77.3243 8.16846 74.8355 8.16846C74.3831 8.16846 72.0208 8.203 71.1503 8.27244V11.9827C71.6902 12.0288 73.9825 12.0519 74.6266 12.0519C75.9669 12.0519 76.959 11.8929 77.6028 11.5751ZM67.7064 6.97554C67.7064 6.10594 68.2266 5.5798 69.2667 5.39677C70.3628 5.19842 73.1721 5.09924 74.8626 5.09924C79.6738 5.09924 82.0795 6.68585 82.0795 9.85889C82.0795 10.942 81.7638 11.8573 81.132 12.6048C80.5006 13.3522 79.6242 13.9321 78.359 14.2256L81.3996 17.1926C81.9455 17.8005 82.1806 18.8365 80.9863 19.4084C80.0075 19.8773 78.9291 19.5471 78.1408 18.6343L74.5376 14.6869C74.2963 14.7175 71.5972 14.7024 71.0954 14.6413V18.1997C71.0954 18.6115 70.9472 18.9471 70.6499 19.2064C70.3526 19.4656 70.0395 19.5954 69.5192 19.5954C68.9807 19.5954 68.4263 19.4656 68.1384 19.2064C67.8504 18.9471 67.7064 18.6115 67.7064 18.1997V6.97554Z" fill="#FF5D6A"></path><path fill-rule="evenodd" clip-rule="evenodd" d="M96.572 6.92457C96.572 6.39897 96.7162 5.96613 97.0041 5.62552C97.2925 5.28508 97.7147 5.11487 98.2709 5.11487C98.8275 5.11487 99.2546 5.28508 99.5526 5.62552C99.8508 5.96613 99.9998 6.39897 99.9998 6.92457V11.5067C99.9998 12.7128 99.8707 13.8027 99.6124 14.7755C99.3539 15.7486 98.9366 16.6386 98.3604 17.4463C97.7843 18.2537 96.9695 18.8814 95.9163 19.3288C94.8632 19.7763 93.6113 19.9999 92.1606 19.9999C89.3588 19.9999 87.337 19.2266 86.0947 17.6797C84.8528 16.1326 84.232 14.0945 84.232 11.5651V6.92457C84.232 6.39897 84.3858 5.96613 84.6938 5.62552C85.0022 5.28508 85.4343 5.11487 85.9907 5.11487C86.5669 5.11487 87.0138 5.28508 87.3319 5.62552C87.6499 5.96613 87.8088 6.39897 87.8088 6.92457V11.7111C87.8088 15.155 89.2691 16.8769 92.1902 16.8769C95.1114 16.8769 96.572 15.1355 96.572 11.6525V6.92457Z" fill="#FF5D6A"></path><path fill-rule="evenodd" clip-rule="evenodd" d="M26.0342 19.9998C23.3867 19.9998 21.3158 19.3578 19.8204 18.0737C18.325 16.7896 17.5771 14.9897 17.5771 12.6743C17.5771 10.3392 18.3558 8.49562 19.9121 7.14315C21.4689 5.79068 23.5952 5.11462 26.2916 5.11462C28.3754 5.11462 29.9565 5.38686 31.0349 5.9317C32.0888 6.45712 32.3954 7.10932 31.9541 7.8874C31.5375 8.58803 30.7287 8.88484 29.5275 8.5932C28.2774 8.30137 26.8813 8.06243 26.0482 8.06243C24.6262 8.06243 23.5112 8.47123 22.7019 9.2883C21.8929 10.1056 21.4887 11.234 21.4887 12.6743C21.4887 14.0362 21.9113 15.1065 22.7574 15.8845C23.6029 16.663 24.7122 17.0522 26.0849 17.0522C27.0655 17.0522 28.596 16.7798 29.9685 16.2348C31.1453 15.7873 31.9788 15.8845 32.4688 16.5266C33.0329 17.266 32.7878 17.9761 31.7337 18.6575C30.3118 19.5524 28.4122 19.9998 26.0342 19.9998Z" fill="#FF5D6A"></path><path fill-rule="evenodd" clip-rule="evenodd" d="M55.0541 5.48163C55.4018 5.16078 55.874 5 56.4699 5C57.0661 5 57.5432 5.16078 57.9009 5.48163C58.2584 5.80283 58.4373 6.23567 58.4373 6.78068C58.4373 7.34492 58.2584 7.78239 57.9009 8.0938C57.5432 8.40521 57.0661 8.56101 56.4699 8.56101C55.874 8.56101 55.4018 8.41002 55.0541 8.1084C54.7065 7.80679 54.5326 7.36415 54.5326 6.78068C54.5326 6.23567 54.7065 5.80283 55.0541 5.48163Z" fill="#FF5D6A"></path><path fill-rule="evenodd" clip-rule="evenodd" d="M51.4218 5.59625C51.1238 5.27505 50.7066 5.11462 50.1699 5.11462C49.6335 5.11462 49.2211 5.27505 48.9331 5.59625C48.6448 5.9171 48.5007 6.32127 48.5007 6.80753V10.7622H38.4192V6.80753C38.4192 6.32127 38.2702 5.9171 37.9718 5.59625C37.674 5.27505 37.2567 5.11462 36.7199 5.11462C36.1835 5.11462 35.7711 5.27505 35.4831 5.59625C35.1949 5.9171 35.0507 6.32127 35.0507 6.80753V18.0151C35.0507 18.5017 35.1949 18.9055 35.4831 19.2264C35.7711 19.5476 36.1835 19.708 36.7199 19.708C37.2567 19.708 37.674 19.5476 37.9718 19.2264C38.2702 18.9055 38.4192 18.5017 38.4192 18.0151V14.0604H48.5007V18.0151C48.5007 18.5017 48.6448 18.9055 48.9331 19.2264C49.2211 19.5476 49.6335 19.708 50.1699 19.708C50.7066 19.708 51.1238 19.5476 51.4218 19.2264C51.7202 18.9055 51.8691 18.5017 51.8691 18.0151V6.80753C51.8691 6.32127 51.7202 5.9171 51.4218 5.59625Z" fill="#FF5D6A"></path><path fill-rule="evenodd" clip-rule="evenodd" d="M54.801 11.9471C54.801 11.4606 54.9451 11.0566 55.2334 10.7358C55.5214 10.4146 55.9336 10.2542 56.4702 10.2542C57.0069 10.2542 57.4241 10.4146 57.7221 10.7358C58.0203 11.0566 58.1692 11.4606 58.1692 11.9471V18.015C58.1692 18.5016 58.0203 18.9054 57.7221 19.2263C57.4241 19.5475 57.0069 19.7079 56.4702 19.7079C55.9336 19.7079 55.5214 19.5475 55.2334 19.2263C54.9451 18.9054 54.801 18.5016 54.801 18.015V11.9471Z" fill="#FF5D6A"></path><path fill-rule="evenodd" clip-rule="evenodd" d="M61.402 16.2487C61.7699 15.85 62.2714 15.6503 62.9074 15.6503C63.5433 15.6503 64.05 15.85 64.4275 16.2487C64.805 16.6477 64.9939 17.1293 64.9939 17.6936C64.9939 18.2774 64.8101 18.7587 64.4423 19.1381C64.075 19.5175 63.5631 19.7073 62.9074 19.7073C62.2515 19.7073 61.745 19.5175 61.3871 19.1381C61.0294 18.7587 60.8507 18.2774 60.8507 17.6936C60.8507 17.1293 61.0345 16.6477 61.402 16.2487Z" fill="#FF5D6A"></path></svg>
